# AST/ASF file generated using VICON BodyLanguage
# -----------------------------------------------
:version 1.10
:name VICON
:units
  mass 1.0
  length 0.45
  angle deg
:documentation
   .ast/.asf automatically generated from VICON data using
   VICON BodyBuilder and BodyLanguage model FoxedUp or BRILLIANT.MOD
:root
   order TX TY TZ RX RY RZ
   axis XYZ
   position 0 0 0  
   orientation 0 0 0 
:bonedata
  begin
     id 1 
     name lhipjoint
     direction 0.535335 -0.74333 0.401095 
     length 2.04549 
     axis 0 0 0  XYZ
  end
  begin
     id 2 
     name lfemur
     direction 0.34202 -0.939693 0  
     length 6.95643  
     axis 0 0 20  XYZ
    dof rx ry rz
    limits (-160.0 20.0)
           (-70.0 70.0)
           (-60.0 70.0)
  end
  begin
     id 3 
     name ltibia
     direction 0.34192 -0.939729 0   
     length 5.55969   
     axis 0 0 20   XYZ
    dof rx
    limits (-10.0 170.0)
  end
  begin
     id 4 
     name lfoot
     direction 0.216943 -0.596046 0.773088   
     length 2.27918   
     axis -90 7.62852e-016 20   XYZ
    dof rx rz
    limits (-45.0 90.0)
           (-70.0 20.0)
  end
  begin
     id 5 
     name ltoes
     direction 1.53519e-011 -4.21748e-011 1   
     length 1.05562   
     axis -90 7.62852e-016 20   XYZ
    dof rx
    limits (-90.0 20.0)
  end
  begin
     id 6 
     name rhipjoint
     direction -0.576368 -0.719173 0.38806   
     length 2.1142  
     axis 0 0 0  XYZ 
  end
  begin
     id 7 
     name rfemur
     direction -0.34202 -0.939693 0   
     length 7.07928   
     axis 0 0 -20   XYZ
    dof rx ry rz
    limits (-160.0 20.0)
           (-70.0 70.0)
           (-70.0 60.0)
  end
  begin
     id 8 
     name rtibia
     direction -0.34202 -0.939693 0   
     length 5.79974   
     axis 0 0 -20   XYZ
    dof rx
    limits (-10.0 170.0)
 end
 begin
     id 9 
     name rfoot
     direction -0.189288 -0.520065 0.832888   
     length 2.42173  
     axis -90 -7.62852e-016 -20   XYZ
    dof rx rz
    limits (-45.0 90.0)
           (-20.0 70.0)
  end
  begin
     id 10 
     name rtoes
     direction -1.53574e-011 -4.21658e-011 1   
     length 1.14469   
     axis -90 -7.62852e-016 -20   XYZ
    dof rx
    limits (-90.0 20.0)
  end
  begin
     id 11 
     name lowerback
     direction -0.00135702 0.993803 0.111144   
     length 1.91308   
     axis 0 0 0   XYZ
    dof rx ry rz
    limits (-20.0 45.0)
           (-30.0 30.0)
           (-30.0 30.0)
  end
  begin
     id 12 
     name upperback
     direction -0.0056745 0.999813 0.0184631   
     length 1.9212   
     axis 0 0 0   XYZ
    dof rx ry rz
    limits (-20.0 45.0)
           (-30.0 30.0)
           (-30.0 30.0)
  end
  begin
     id 13 
     name thorax
     direction -0.00733434 0.999426 -0.0330788   
     length 1.94196   
     axis 0 0 0   XYZ
    dof rx ry rz
    limits (-20.0 45.0)
           (-30.0 30.0)
           (-30.0 30.0)
  end
  begin
     id 14 
     name lowerneck
     direction 0.0563074 0.996944 -0.0541571   
     length 2.34257   
     axis 0 0 0   XYZ
    dof rx ry rz
    limits (-20.0 45.0)
           (-30.0 30.0)
           (-30.0 30.0)
  end
  begin
     id 15 
     name upperneck
     direction -0.0544519 0.976166 -0.210085   
     length 2.32506   
     axis 0 0 0   XYZ
    dof rx ry rz
    limits (-20.0 45.0)
           (-30.0 30.0)
           (-30.0 30.0)
  end
  begin
     id 16
     name head
     direction -0.0226035 0.997615 -0.0652205  
     length 2.3648  
     axis 0 0 0   XYZ
    dof rx ry rz
    limits (-20.0 45.0)
           (-30.0 30.0)
           (-30.0 30.0)
  end
  begin
     id 17 
     name lclavicle
     direction 0.92109 0.381297 -0.0787716  
     length 4.0487  
     axis 0 0 0   XYZ
    dof ry rz
    limits (-20.0 10.0)
           (0.0 20.0)
  end
  begin
     id 18 
     name lhumerus
     direction 1 -4.48986e-011 3.56724e-027   
     length 4.94991   
     axis 180 -30 -90   XYZ
    dof rx ry rz
    limits (-60.0 90.0)
           (-90.0 90.0)
           (-90.0 90.0)
  end
  begin
     id 19
     name lradius
     direction 1 -4.48981e-011 8.62147e-027   
     length 2.7606   
     axis 180 -30 -90   XYZ
    dof rx
    limits (-10.0 170.0)
  end
  begin
     id 20
     name lwrist
     direction 1 -4.48989e-011 1.59799e-026   
     length 1.3803   
     axis -1.17785e-014 90 90   XYZ
    dof ry
    limits (-180.0 0.0)
 end
  begin
     id 21 
     name lhand
     direction 1 -4.48896e-011 3.19599e-026   
     length 0.843936   
     axis -2.03931e-014 90 90   XYZ
    dof rx rz
    limits (-90.0 90.0)
           (-45.0 45.0)
  end
  begin
     id 22 
     name lfingers
     direction 1 -4.48887e-011 6.39197e-026   
     length 0.680403   
     axis -4.07862e-014 90 90   XYZ
    dof rx
    limits (0.0 90.0)
  end
  begin
     id 23
     name lthumb
     direction 0.707107 -6.348e-011 0.707107   
     length 0.976926   
     axis -90 45 2.85299e-015   XYZ
    dof rx rz
    limits (-45.0 45.0)
           (-45.0 45.0)
  end
  begin
     id 24 
     name rclavicle
     direction -0.951104 0.307692 -0.026953   
     length 4.21801  
     axis 0 0 0   XYZ 
    dof ry rz
    limits (-10.0 20.0)
           (-20.0 0.0)
  end
  begin
     id 25 
     name rhumerus
     direction -1 -4.4896e-011 -1.8171e-018  
     length 4.32982   
     axis 180 30 90   XYZ
    dof rx ry rz
    limits (-90.0 60.0)
           (-90.0 90.0)
           (-90.0 90.0)
  end
  begin
     id 26 
     name rradius
     direction -1 -4.48959e-011 8.25165e-027   
     length 3.20057   
     axis 180 30 90   XYZ
    dof rx
    limits (-10.0 170.0)
  end
  begin
     id 27 
     name rwrist
     direction -1 -4.48997e-011 1.59799e-026   
     length 1.60029   
     axis -1.17785e-014 -90 -90   XYZ
    dof ry
    limits (-180.0 0.0)
  end
  begin
     id 28
     name rhand
     direction -1 -4.49023e-011 3.19599e-026   
     length 0.960433   
     axis -2.03931e-014 -90 -90   XYZ
    dof rx rz
    limits (-90.0 90.0)
           (-45.0 45.0)
  end
  begin
     id 29
     name rfingers
     direction -1 -4.48802e-011 6.39197e-026   
     length 0.774326   
     axis -4.07862e-014 -90 -90   XYZ
    dof rx
    limits (0.0 90.0)
  end
  begin
     id 30
     name rthumb
     direction -0.707107 -6.34876e-011 0.707107   
     length 1.11178   
     axis -90 -45 -2.85299e-015   XYZ
    dof rx rz
    limits (-45.0 45.0)
           (-45.0 45.0)
  end
:hierarchy
  begin
    root lhipjoint rhipjoint lowerback
    lhipjoint lfemur
    lfemur ltibia
    ltibia lfoot
    lfoot ltoes
    rhipjoint rfemur
    rfemur rtibia
    rtibia rfoot
    rfoot rtoes
    lowerback upperback
    upperback thorax
    thorax lowerneck lclavicle rclavicle
    lowerneck upperneck
    upperneck head
    lclavicle lhumerus
    lhumerus lradius
    lradius lwrist
    lwrist lhand lthumb
    lhand lfingers
    rclavicle rhumerus
    rhumerus rradius
    rradius rwrist
    rwrist rhand rthumb
    rhand rfingers
end

#!OML:ASF C:\KaitlinTest1\Natural Motions\Nikki\Session 2\Nikki.ASF
:FULLY-SPECIFIED
:DEGREES
473
root -12.0977 16.506 4.05801 74.1877 91.1008 67.4479
lowerback -9.66727 -2.01012 0.454947
upperback -4.7374 -2.53429 -0.404447
thorax 0.461804 -1.2076 -0.92048
lowerneck -7.51119 -11.1513 -9.99416
upperneck 5.73207 42.364 5.49869
head 166.383 61.0228 -38.682
rclavicle -9.69075e-015 4.37326e-015
rhumerus -39.349 -20.1107 -83.1718
rradius 18.6526
rwrist 15.4169
rhand -35.8392 1.26362
rfingers 7.12502
rthumb -8.95459 -28.5264
lclavicle -9.69075e-015 4.37326e-015
lhumerus -38.1386 13.836 83.3394
lradius 23.1631
lwrist -24.0669
lhand -35.721 3.37994
lfingers 7.12502
lthumb -8.84058 33.1748
rfemur -6.6664 -20.4728 20.6796
rtibia 16.8067
rfoot -13.4901 9.73722
rtoes -2.38542e-015
lfemur -9.8754 16.4001 -17.2642
ltibia 20.0528
lfoot -8.78593 -18.6831
ltoes -1.74931e-014
474
root -12.1017 16.5068 4.05913 72.2803 91.074 65.5132
lowerback -9.72517 -2.01415 0.414425
upperback -4.73669 -2.53522 -0.41967
thorax 0.495269 -1.20712 -0.915742
lowerneck -7.43242 -11.1445 -10.0011
upperneck 5.72758 42.276 5.49892
head 166.407 61.1231 -38.6487
rclavicle 5.2181e-015 1.59028e-015
rhumerus -39.1461 -19.9208 -83.4182
rradius 18.6002
rwrist 15.4347
rhand -35.795 1.04131
rfingers 7.12502
rthumb -8.91203 -28.7505
lclavicle 5.2181e-015 1.59028e-015
lhumerus -37.9927 13.8622 83.4431
lradius 23.1191
lwrist -24.0596
lhand -35.5635 3.43574
lfingers 7.12502
lthumb -8.68855 33.2369
rfemur -6.70962 -20.5372 20.6541
rtibia 16.7961
rfoot -13.4582 9.79085
rtoes -2.3059e-014
lfemur -9.94276 16.4473 -17.3144
ltibia 20.0834
lfoot -8.75238 -18.7461
ltoes 1.27222e-014
475
root -12.1052 16.5067 4.06047 71.124 91.102 64.3552
lowerback -9.75534 -2.00804 0.420113
upperback -4.72898 -2.52773 -0.410597
thorax 0.520049 -1.20321 -0.910128
lowerneck -7.35635 -11.1714 -10.0012
upperneck 5.71101 42.1268 5.46809
head 166.272 61.2514 -38.7056
rclavicle -9.44227e-016 1.19271e-015
rhumerus -38.9769 -19.8456 -83.5349
rradius 18.4895
rwrist 15.6245
rhand -35.7444 1.44095
rfingers 7.12502
rthumb -8.86312 -28.3529
lclavicle -9.44227e-016 1.19271e-015
lhumerus -37.8343 13.9621 83.507
lradius 23.0179
lwrist -24.2177
lhand -35.5224 3.2978
lfingers 7.12502
lthumb -8.64893 33.1006
rfemur -6.72383 -20.5581 20.684
rtibia 16.8009
rfoot -13.4676 9.78315
rtoes 3.4191e-014
lfemur -9.97233 16.4783 -17.2979
ltibia 20.0919
lfoot -8.75889 -18.8076
ltoes 1.74931e-014
476
root -12.1084 16.5071 4.06065 69.8315 91.0679 63.0148
lowerback -9.81262 -2.00874 0.39253
upperback -4.75664 -2.52397 -0.428488
thorax 0.523123 -1.20028 -0.914261
lowerneck -7.27595 -11.165 -9.99456
upperneck 5.74603 42.1452 5.49615
head 166.287 61.2757 -38.6991
rclavicle -2.25621e-014 -4.37326e-015
rhumerus -38.8505 -19.5067 -83.8497
rradius 18.5188
rwrist 15.4345
rhand -35.7013 1.16326
rfingers 7.12502
rthumb -8.82159 -28.6324
lclavicle -2.25621e-014 -4.37326e-015
lhumerus -37.711 14.1182 83.51
lradius 22.874
lwrist -24.4347
lhand -35.5283 3.37747
lfingers 7.12502
lthumb -8.65464 33.1801
rfemur -6.80402 -20.5915 20.6639
rtibia 16.82
rfoot -13.4496 9.80754
rtoes -2.06736e-014
lfemur -10.0425 16.5438 -17.3646
ltibia 20.0836
lfoot -8.73958 -18.8788
ltoes -4.77083e-015
477
root -12.1122 16.5086 4.06266 67.6461 91.1085 60.8506
lowerback -9.82911 -1.99692 0.419104
upperback -4.73701 -2.51083 -0.447458
thorax 0.550655 -1.19436 -0.948416
lowerneck -7.20287 -11.2157 -9.96054
upperneck 5.72909 41.9743 5.4685
head 166.09 61.4236 -38.8033
rclavicle -1.82882e-014 -3.18055e-015
rhumerus -38.7282 -19.5892 -83.9493
rradius 18.4662
rwrist 15.7209
rhand -35.6802 1.15705
rfingers 7.12502
rthumb -8.80118 -28.6394
lclavicle -1.82882e-014 -3.18055e-015
lhumerus -37.5308 13.8736 83.7148
lradius 22.7618
lwrist -24.2576
lhand -35.4938 3.43979
lfingers 7.12502
lthumb -8.62129 33.2438
rfemur -6.80195 -20.6168 20.6925
rtibia 16.8254
rfoot -13.4389 9.78232
rtoes -4.77083e-015
lfemur -10.0474 16.5547 -17.3336
ltibia 20.0783
lfoot -8.70587 -18.9497
ltoes -7.15625e-014
478
root -12.1156 16.5079 4.0639 65.8621 91.0995 59.0556
lowerback -9.82128 -1.99742 0.397949
upperback -4.77014 -2.50781 -0.463953
thorax 0.512266 -1.1923 -0.952263
lowerneck -7.09722 -11.232 -9.94916
upperneck 5.75455 41.9261 5.47701
head 166.037 61.4455 -38.8128
rclavicle -6.95746e-016 5.96354e-015
rhumerus -38.634 -19.476 -84.1217
rradius 18.3984
rwrist 15.7777
rhand -35.7609 1.29701
rfingers 7.12502
rthumb -8.87912 -28.4962
lclavicle -6.95746e-016 5.96354e-015
lhumerus -37.4765 14.2442 83.5879
lradius 22.6297
lwrist -24.7941
lhand -35.3333 3.36931
lfingers 7.12502
lthumb -8.46641 33.1796
rfemur -6.8195 -20.5977 20.6779
rtibia 16.8306
rfoot -13.4208 9.73318
rtoes -1.11319e-014
lfemur -10.0717 16.5591 -17.3644
ltibia 20.072
lfoot -8.70376 -18.9764
ltoes 1.43125e-014
